<svg width="204" height="100" viewBox="0 0 204 100" fill="none" xmlns="http://www.w3.org/2000/svg">
<path d="M2.80831 44.6477H9.72555C10.9832 44.6477 11.675 43.8931 11.9894 43.1385L14.2532 38.1077H31.3577L33.6215 43.0756C34.1875 44.2703 34.6906 44.6477 35.8225 44.6477H42.8025C43.7459 44.6477 44.249 43.8302 43.8715 43.0127L24.189 0.691724C24.0002 0.314421 23.5601 0 23.1199 0H22.4911C22.0509 0 21.6106 0.314421 21.422 0.691724L1.73928 43.0127C1.36197 43.8302 1.86505 44.6477 2.80831 44.6477ZM18.0262 29.5555L22.7425 19.1797H22.8054L27.5846 29.5555H18.0262ZM49.0349 43.4529C49.0349 44.0818 49.538 44.6477 50.2298 44.6477H76.2638C76.9556 44.6477 77.4586 44.0818 77.4586 43.4529V36.5985C77.4586 35.9697 76.9556 35.4037 76.2638 35.4037H58.8449V26.9144H73.1825C73.8114 26.9144 74.3772 26.4113 74.3772 25.7195V18.8652C74.3772 18.2365 73.8114 17.6705 73.1825 17.6705H58.8449V9.8728H76.2638C76.9556 9.8728 77.4586 9.30684 77.4586 8.678V1.82364C77.4586 1.1948 76.9556 0.628837 76.2638 0.628837H50.2298C49.538 0.628837 49.0349 1.1948 49.0349 1.82364V43.4529ZM81.9823 42.8869C81.4164 43.7044 81.9823 44.6477 83.0514 44.6477H91.7922C92.2952 44.6477 92.6727 44.3332 92.8612 44.0818L100.91 31.3792H101.036L109.274 44.0818C109.463 44.3961 109.966 44.6477 110.343 44.6477H119.084C120.09 44.6477 120.656 43.7673 120.09 42.8869L106.884 22.0723L119.65 2.3896C120.216 1.5721 119.65 0.628837 118.581 0.628837H109.4C108.96 0.628837 108.519 0.943256 108.394 1.1948L101.036 12.8912H100.973L93.7415 1.1948C93.553 0.943256 93.1757 0.628837 92.7354 0.628837H83.5544C82.4854 0.628837 81.9823 1.5721 82.4854 2.3896L95.188 22.0723L81.9823 42.8869ZM123.266 22.7011C123.266 35.2779 133.265 45.2765 145.842 45.2765C158.418 45.2765 168.481 35.2779 168.481 22.7011C168.481 10.1243 158.418 0 145.842 0C133.265 0 123.266 10.1243 123.266 22.7011ZM133.328 22.7011C133.328 15.7839 138.987 10.0615 145.842 10.0615C152.759 10.0615 158.418 15.7839 158.418 22.7011C158.418 29.5555 152.759 35.2152 145.842 35.2152C138.987 35.2152 133.328 29.5555 133.328 22.7011ZM176.093 43.4529C176.093 44.0818 176.595 44.6477 177.287 44.6477H200.932C201.624 44.6477 202.127 44.0818 202.127 43.4529V36.5985C202.127 35.9697 201.624 35.4037 200.932 35.4037H185.966V1.82364C185.966 1.1948 185.4 0.628837 184.771 0.628837H177.287C176.595 0.628837 176.093 1.1948 176.093 1.82364V43.4529Z" fill="#EAE8EB"/>
<path d="M48.3867 97.5099L49.0835 95.0712C50.0125 96.2067 51.2899 97.1357 52.9158 97.8583C54.5416 98.5809 56.1545 98.9422 57.7545 98.9422C59.6383 98.9422 61.148 98.4261 62.2835 97.3938C63.4706 96.3615 64.0641 95.0454 64.0641 93.4454C63.9867 91.7938 63.4577 90.5164 62.477 89.6132C61.5222 88.7099 59.9867 87.7551 57.8706 86.7486L55.9351 85.897C54.4899 85.2261 53.3158 84.6067 52.4125 84.039C50.0125 82.4906 48.8125 80.439 48.8125 77.8841C48.8125 75.7422 49.6383 73.9744 51.2899 72.5809C52.9416 71.1615 55.0835 70.4519 57.7157 70.4519C60.6319 70.4519 63.2641 71.1357 65.6125 72.5035L64.9932 74.6712C62.6448 72.2712 60.077 71.0712 57.2899 71.0712C55.5867 71.0712 54.219 71.5357 53.1867 72.4648C52.1545 73.3938 51.6383 74.5809 51.6383 76.0261C51.7158 77.5228 52.2061 78.6841 53.1093 79.5099C54.0125 80.3357 55.5351 81.2519 57.677 82.2583L59.6125 83.1486C61.3416 84.0002 62.5932 84.6841 63.3674 85.2002C65.6899 86.6454 66.8512 88.7228 66.8512 91.4325C66.8512 93.8325 65.9609 95.7938 64.1803 97.3164C62.3996 98.8132 60.1416 99.5615 57.4061 99.5615C55.7803 99.5615 54.1287 99.3551 52.4512 98.9422C50.7996 98.5293 49.4448 98.0519 48.3867 97.5099ZM81.0387 97.2777L81.3483 97.7422C79.5161 98.9551 77.7096 99.5615 75.929 99.5615C72.5741 99.5615 70.8967 97.7938 70.8967 94.2583V79.3938H67.9161V78.7357L70.7419 78.5422L74.4193 71.9615H74.5741V78.5422H81.1935L80.6903 79.3938H74.5741V94.1809C74.5741 95.2132 74.7548 96.1551 75.1161 97.0067C75.5032 97.8325 76.3677 98.2454 77.7096 98.2454C78.8193 98.2454 79.929 97.9228 81.0387 97.2777ZM100.798 95.5744L101.649 98.3615L98.2043 99.4454L97.1204 96.0777V96.0003C94.9269 98.3744 92.4495 99.5615 89.6882 99.5615C85.2753 99.5615 83.0688 97.1357 83.0688 92.2841V79.1615L86.5914 78.1164H86.7462V92.3615C86.7462 93.8583 87.0172 95.2132 87.5591 96.4261C88.1011 97.6132 89.3398 98.2067 91.2753 98.2067C92.2301 98.2067 93.2237 97.9357 94.2559 97.3938C95.314 96.8261 96.2688 96.0648 97.1204 95.1099V79.1615L100.643 78.1164H100.798V95.5744ZM124.463 98.3615L121.017 99.4454L120.011 96.2712C117.972 98.4648 115.663 99.5615 113.082 99.5615C110.579 99.5615 108.475 98.5809 106.772 96.6196C105.095 94.6583 104.256 92.1809 104.256 89.1873C104.204 86.039 105.172 83.3938 107.159 81.2519C109.146 79.0841 111.508 78.0261 114.243 78.0777C116.463 78.0777 118.359 78.7873 119.933 80.2067V68.9035L123.456 67.7422H123.611V95.5744L124.463 98.3615ZM119.933 95.3809V82.6454C119.443 81.4583 118.721 80.5164 117.766 79.8196C116.811 79.097 115.753 78.7357 114.592 78.7357C112.656 78.7357 111.108 79.6519 109.946 81.4841C108.785 83.2906 108.204 85.7293 108.204 88.8003C108.204 91.8196 108.746 94.1551 109.83 95.8067C110.914 97.4583 112.398 98.2841 114.282 98.2841C116.346 98.2841 118.23 97.3164 119.933 95.3809ZM130.032 74.8648L127.399 72.2325L130.032 69.6003L132.664 72.2325L130.032 74.8648ZM128.212 99.097V79.1615L131.696 78.1164H131.851V99.097H128.212ZM135.367 88.9551C135.367 85.7293 136.361 83.1099 138.348 81.097C140.361 79.0841 142.89 78.0777 145.935 78.0777C148.929 78.0777 151.38 79.0583 153.29 81.0196C155.2 82.9551 156.154 85.5228 156.154 88.7228C156.154 91.9228 155.148 94.5293 153.135 96.5422C151.148 98.5551 148.632 99.5615 145.587 99.5615C142.593 99.5615 140.142 98.5938 138.232 96.6583C136.322 94.7228 135.367 92.1551 135.367 88.9551ZM152.206 88.9551C152.206 85.8841 151.6 83.3938 150.387 81.4841C149.174 79.5744 147.613 78.6196 145.703 78.6196C143.767 78.6196 142.219 79.5486 141.058 81.4067C139.896 83.2648 139.316 85.7035 139.316 88.7228C139.316 91.7938 139.922 94.2841 141.135 96.1938C142.348 98.0777 143.909 99.0196 145.819 99.0196C147.754 99.0196 149.303 98.1035 150.464 96.2712C151.625 94.439 152.206 92.0003 152.206 88.9551Z" fill="#EAE8EB"/>
</svg>
