<svg width="126" height="62" viewBox="0 0 126 62" fill="none" xmlns="http://www.w3.org/2000/svg">
<path d="M1.74092 27.6816H6.02961C6.80937 27.6816 7.23824 27.2137 7.43318 26.7459L8.83676 23.6268H19.4415L20.8451 26.7069C21.196 27.4476 21.5079 27.6816 22.2097 27.6816H26.5373C27.1222 27.6816 27.4341 27.1747 27.2001 26.6679L14.9969 0.428869C14.8799 0.194941 14.607 0 14.3341 0H13.9442C13.6713 0 13.3983 0.194941 13.2814 0.428869L1.07812 26.6679C0.844189 27.1747 1.1561 27.6816 1.74092 27.6816ZM11.176 18.3244L14.1001 11.8914H14.1391L17.1022 18.3244H11.176ZM30.4014 26.9408C30.4014 27.3307 30.7133 27.6816 31.1422 27.6816H47.2833C47.7122 27.6816 48.0241 27.3307 48.0241 26.9408V22.6911C48.0241 22.3012 47.7122 21.9503 47.2833 21.9503H36.4836V16.6869H45.3729C45.7628 16.6869 46.1136 16.375 46.1136 15.9461V11.6964C46.1136 11.3066 45.7628 10.9557 45.3729 10.9557H36.4836V6.12114H47.2833C47.7122 6.12114 48.0241 5.77024 48.0241 5.38036V1.13066C48.0241 0.740779 47.7122 0.389879 47.2833 0.389879H31.1422C30.7133 0.389879 30.4014 0.740779 30.4014 1.13066V26.9408ZM50.8288 26.5899C50.4779 27.0967 50.8288 27.6816 51.4916 27.6816H56.9109C57.2228 27.6816 57.4568 27.4866 57.5737 27.3307L62.5642 19.4551H62.6422L67.7496 27.3307C67.8666 27.5256 68.1785 27.6816 68.4124 27.6816H73.8318C74.4556 27.6816 74.8065 27.1357 74.4556 26.5899L66.2681 13.6848L74.1827 1.48155C74.5335 0.974699 74.1827 0.389879 73.5199 0.389879H67.8276C67.5547 0.389879 67.2818 0.584819 67.2038 0.740779L62.6422 7.99257H62.6032L58.1195 0.740779C58.0026 0.584819 57.7687 0.389879 57.4957 0.389879H51.8035C51.1407 0.389879 50.8288 0.974699 51.1407 1.48155L59.0163 13.6848L50.8288 26.5899ZM76.4248 14.0747C76.4248 21.8723 82.6239 28.0714 90.4215 28.0714C98.2191 28.0714 104.458 21.8723 104.458 14.0747C104.458 6.27709 98.2191 0 90.4215 0C82.6239 0 76.4248 6.27709 76.4248 14.0747ZM82.6629 14.0747C82.6629 9.786 86.1718 6.2381 90.4215 6.2381C94.7102 6.2381 98.2191 9.786 98.2191 14.0747C98.2191 18.3244 94.7102 21.8334 90.4215 21.8334C86.1718 21.8334 82.6629 18.3244 82.6629 14.0747ZM109.178 26.9408C109.178 27.3307 109.489 27.6816 109.918 27.6816H124.578C125.007 27.6816 125.319 27.3307 125.319 26.9408V22.6911C125.319 22.3012 125.007 21.9503 124.578 21.9503H115.299V1.13066C115.299 0.740779 114.948 0.389879 114.558 0.389879H109.918C109.489 0.389879 109.178 0.740779 109.178 1.13066V26.9408Z" fill="black"/>
<path d="M30 60.456L30.432 58.944C31.008 59.648 31.8 60.224 32.808 60.672C33.816 61.12 34.816 61.344 35.808 61.344C36.976 61.344 37.912 61.024 38.616 60.384C39.352 59.744 39.72 58.928 39.72 57.936C39.672 56.912 39.344 56.12 38.736 55.56C38.144 55 37.192 54.408 35.88 53.784L34.68 53.256C33.784 52.84 33.056 52.456 32.496 52.104C31.008 51.144 30.264 49.872 30.264 48.288C30.264 46.96 30.776 45.864 31.8 45C32.824 44.12 34.152 43.68 35.784 43.68C37.592 43.68 39.224 44.104 40.68 44.952L40.296 46.296C38.84 44.808 37.248 44.064 35.52 44.064C34.464 44.064 33.616 44.352 32.976 44.928C32.336 45.504 32.016 46.24 32.016 47.136C32.064 48.064 32.368 48.784 32.928 49.296C33.488 49.808 34.432 50.376 35.76 51L36.96 51.552C38.032 52.08 38.808 52.504 39.288 52.824C40.728 53.72 41.448 55.008 41.448 56.688C41.448 58.176 40.896 59.392 39.792 60.336C38.688 61.264 37.288 61.728 35.592 61.728C34.584 61.728 33.56 61.6 32.52 61.344C31.496 61.088 30.656 60.792 30 60.456ZM50.2442 60.312L50.4362 60.6C49.3002 61.352 48.1802 61.728 47.0762 61.728C44.9962 61.728 43.9562 60.632 43.9562 58.44V49.224H42.1082V48.816L43.8602 48.696L46.1402 44.616H46.2362V48.696H50.3402L50.0282 49.224H46.2362V58.392C46.2362 59.032 46.3482 59.616 46.5722 60.144C46.8122 60.656 47.3482 60.912 48.1802 60.912C48.8682 60.912 49.5562 60.712 50.2442 60.312ZM62.4949 59.256L63.0229 60.984L60.8869 61.656L60.2149 59.568V59.52C58.8549 60.992 57.3189 61.728 55.6069 61.728C52.8709 61.728 51.5029 60.224 51.5029 57.216V49.08L53.6869 48.432H53.7829V57.264C53.7829 58.192 53.9509 59.032 54.2869 59.784C54.6229 60.52 55.3909 60.888 56.5909 60.888C57.1829 60.888 57.7989 60.72 58.4389 60.384C59.0949 60.032 59.6869 59.56 60.2149 58.968V49.08L62.3989 48.432H62.4949V59.256ZM77.167 60.984L75.031 61.656L74.407 59.688C73.143 61.048 71.711 61.728 70.111 61.728C68.559 61.728 67.255 61.12 66.199 59.904C65.159 58.688 64.639 57.152 64.639 55.296C64.607 53.344 65.207 51.704 66.439 50.376C67.671 49.032 69.135 48.376 70.831 48.408C72.207 48.408 73.383 48.848 74.359 49.728V42.72L76.543 42H76.639V59.256L77.167 60.984ZM74.359 59.136V51.24C74.055 50.504 73.607 49.92 73.015 49.488C72.423 49.04 71.767 48.816 71.047 48.816C69.847 48.816 68.887 49.384 68.167 50.52C67.447 51.64 67.087 53.152 67.087 55.056C67.087 56.928 67.423 58.376 68.095 59.4C68.767 60.424 69.687 60.936 70.855 60.936C72.135 60.936 73.303 60.336 74.359 59.136ZM80.6198 46.416L78.9878 44.784L80.6198 43.152L82.2518 44.784L80.6198 46.416ZM79.4918 61.44V49.08L81.6518 48.432H81.7478V61.44H79.4918ZM83.928 55.152C83.928 53.152 84.544 51.528 85.776 50.28C87.024 49.032 88.592 48.408 90.48 48.408C92.336 48.408 93.856 49.016 95.04 50.232C96.224 51.432 96.816 53.024 96.816 55.008C96.816 56.992 96.192 58.608 94.944 59.856C93.712 61.104 92.152 61.728 90.264 61.728C88.408 61.728 86.888 61.128 85.704 59.928C84.52 58.728 83.928 57.136 83.928 55.152ZM94.368 55.152C94.368 53.248 93.992 51.704 93.24 50.52C92.488 49.336 91.52 48.744 90.336 48.744C89.136 48.744 88.176 49.32 87.456 50.472C86.736 51.624 86.376 53.136 86.376 55.008C86.376 56.912 86.752 58.456 87.504 59.64C88.256 60.808 89.224 61.392 90.408 61.392C91.608 61.392 92.568 60.824 93.288 59.688C94.008 58.552 94.368 57.04 94.368 55.152Z" fill="black"/>
</svg>
